# xmcd
#
# Track frame offsets:
#  150
#  12867
#  27572
#  43442
#  67870
#  78352
#  102872
#  119972
#  135022
#  147072
#  159195
#  169087
#
# Disc length: 2633 seconds
#
# Revision: 0
# Processed by: cddbd v1.5.1PL2 Copyright (c) Steve Scherf et al.
# Submitted via: Collectorz.com_Music_Collector 6.11
#
DISCID=970a470c
DTITLE=The Animals - Animalism
DYEAR=1900
DGENRE=
TTITLE0=All Night Long
TTITLE1=Shake
TTITLE2=The Other Side Of This Life
TTITLE3=Rock Me Baby
TTITLE4=Lucille
TTITLE5=Smoke Stack Lightning
TTITLE6=Hey Gyp
TTITLE7=Hit The Road, Jack
TTITLE8=Outcast
TTITLE9=Lousiana Blues
TTITLE10=That's All I Am To You
TTITLE11=Going Down Slow
EXTD=
EXTT0=
EXTT1=
EXTT2=
EXTT3=
EXTT4=
EXTT5=
EXTT6=
EXTT7=
EXTT8=
EXTT9=
EXTT10=
EXTT11=
PLAYORDER=
